<?xml version="1.0" encoding="UTF-8"?>
<!DOCTYPE svg PUBLIC "-//W3C//DTD SVG 1.1//EN" "http://www.w3.org/Graphics/SVG/1.1/DTD/svg11.dtd">
<!-- Creator: CorelDRAW 2017 -->
<svg xmlns="http://www.w3.org/2000/svg" xml:space="preserve" width="51.2455mm" height="51.1487mm" version="1.1" style="shape-rendering:geometricPrecision; text-rendering:geometricPrecision; image-rendering:optimizeQuality; fill-rule:evenodd; clip-rule:evenodd"
viewBox="0 0 436.25 435.42"
 xmlns:xlink="http://www.w3.org/1999/xlink">
 <defs>
  <style type="text/css">
   <![CDATA[
    .fil0 {fill:none}
    .fil1 {fill:#00F2FF}
   ]]>
  </style>
 </defs>
 <g id="Camada_x0020_1">
  <metadata id="CorelCorpID_0Corel-Layer"/>
  <path class="fil0" d="M38.31 0l359.63 0c21.07,0 38.31,17.24 38.31,38.31l0 358.81c0,21.07 -17.24,38.31 -38.31,38.31l-359.63 0c-21.07,0 -38.31,-17.24 -38.31,-38.31l0 -358.81c0,-21.07 17.24,-38.31 38.31,-38.31z"/>
  <g id="_2141340667712">
   <path class="fil1" d="M251.53 290.81l-26.43 26.43c-5.09,5.09 -12.66,4.19 -18.52,0l-1.73 -1.24 -0 0 -2.11 -1.51c-5.86,-4.19 -14.08,-2.82 -18.27,3.05l-15.23 21.32c-4.19,5.86 -2.82,14.08 3.05,18.27l21.32 15.22 0.02 0.01c12.66,12.46 38.85,11.3 52.75,-2.3 0.09,-0.08 0.17,-0.16 0.25,-0.25l30.53 -30.53 0 0 29.35 -29.35 37.04 -37.04c5.09,-5.09 5.09,-13.43 0,-18.52l-18.52 -18.52 -92.61 -92.61c-5.09,-5.09 -13.43,-5.09 -18.52,-0l-18.52 18.52c-5.09,5.09 -5.09,13.43 0,18.52l73.72 73.72 0.37 0.37c5.09,5.09 5.09,13.43 0,18.52l-0 0 -17.92 17.92 -0 0z"/>
   <path class="fil1" d="M111.23 199.58l92.61 92.61c5.09,5.09 13.43,5.09 18.52,0l18.52 -18.52c5.09,-5.09 5.09,-13.43 0,-18.52l-73.72 -73.72 -0.37 -0.37c-5.09,-5.09 -5.09,-13.43 0,-18.52l0 0 17.92 -17.92 0 0 26.43 -26.43c5.09,-5.09 12.66,-4.19 18.52,0l1.73 1.24 0 -0 2.11 1.51c5.86,4.19 14.08,2.82 18.27,-3.05l15.22 -21.32c4.19,-5.86 2.82,-14.08 -3.05,-18.27l-21.32 -15.23 -0.01 -0.01c-12.66,-12.46 -38.85,-11.3 -52.75,2.3 -0.09,0.08 -0.17,0.16 -0.26,0.25l-30.53 30.53 0 0 -29.35 29.35 -37.04 37.04c-5.09,5.09 -5.09,13.43 0,18.52l18.52 18.52z"/>
  </g>
 </g>
</svg>
