<?xml version="1.0" encoding="UTF-8"?>
<!DOCTYPE svg PUBLIC "-//W3C//DTD SVG 1.1//EN" "http://www.w3.org/Graphics/SVG/1.1/DTD/svg11.dtd">
<!-- Creator: CorelDRAW 2017 -->
<svg xmlns="http://www.w3.org/2000/svg" xml:space="preserve" width="166.234mm" height="51.1487mm" version="1.1" style="shape-rendering:geometricPrecision; text-rendering:geometricPrecision; image-rendering:optimizeQuality; fill-rule:evenodd; clip-rule:evenodd"
viewBox="0 0 15627.56 4808.46"
 xmlns:xlink="http://www.w3.org/1999/xlink">
 <defs>
  <style type="text/css">
   <![CDATA[
    .fil0 {fill:none}
    .fil3 {fill:#00F2FF}
    .fil2 {fill:gray;fill-rule:nonzero}
    .fil1 {fill:white;fill-rule:nonzero}
   ]]>
  </style>
 </defs>
 <g id="Camada_x0020_1">
  <metadata id="CorelCorpID_0Corel-Layer"/>
  <path class="fil0" d="M423.04 0l14781.48 0c232.67,0 423.04,190.37 423.04,423.04l0 3962.37c0,232.67 -190.37,423.04 -423.04,423.04l-14781.48 0c-232.67,0 -423.04,-190.37 -423.04,-423.04l0 -3962.37c0,-232.67 190.37,-423.04 423.04,-423.04z"/>
  <g id="_2141248824496">
   <path class="fil1" d="M3700.35 3139.81l0 -168.77c0,-49.41 1.94,-87.93 7.06,-114.24 4.5,-26.95 10.91,-46.21 19.26,-58.39 7.7,-12.19 16.68,-19.25 26.94,-21.82 10.28,-1.93 20.54,-3.21 30.81,-3.21l1231.51 0c13.48,0 25.66,-2.58 37.23,-7.71 11.54,-4.49 21.81,-11.55 30.15,-19.89 8.35,-8.35 14.76,-18.61 19.89,-29.52 4.49,-11.55 7.06,-23.75 7.06,-36.58 0,-13.48 -2.57,-25.66 -7.06,-37.23 -5.13,-11.54 -11.54,-21.81 -19.89,-30.16 -8.34,-8.34 -18.6,-15.4 -30.15,-19.89 -11.56,-4.48 -23.75,-7.06 -37.23,-7.06l-657.78 0c-60.33,0 -118.09,-7.7 -174.57,-23.11 -55.83,-16.04 -108.45,-37.86 -157.22,-66.73 -48.77,-28.25 -93.7,-62.89 -133.48,-102.69 -40.42,-40.43 -74.44,-84.71 -103.32,-133.48 -28.24,-48.77 -50.06,-101.39 -66.11,-157.86 -15.4,-55.83 -23.11,-114.24 -23.11,-173.93 0,-60.96 7.71,-119.36 23.11,-175.2 16.05,-55.82 37.87,-107.8 66.11,-156.57 28.88,-49.43 62.89,-93.7 103.32,-133.48 39.78,-40.43 84.71,-74.46 133.48,-103.33 48.77,-28.23 101.39,-50.7 157.22,-66.1 56.47,-15.4 114.24,-23.75 174.57,-23.75l1137.17 0c10.91,0 21.17,1.29 31.44,3.21 9.63,2.58 18.62,9.63 26.95,21.83 8.35,12.18 14.77,31.44 19.25,58.39 5.14,26.31 7.06,64.81 7.06,114.24l0 169.41c0,49.41 -1.92,87.28 -7.06,114.23 -4.48,26.31 -10.91,45.57 -19.25,57.75 -8.33,12.2 -17.33,19.89 -26.95,21.83 -10.27,2.57 -20.52,3.21 -31.44,3.21l-1137.17 0c-13.48,0 -25.68,2.57 -36.58,7.06 -11.56,5.13 -21.19,11.54 -29.52,19.89 -9,8.34 -15.42,18.61 -20.54,30.16 -5.14,11.55 -7.71,23.75 -7.71,37.22 0,12.83 2.57,25.03 7.71,36.58 5.12,10.91 11.54,21.19 20.54,29.53 8.33,8.35 17.96,15.41 29.52,19.89 10.9,5.13 23.1,7.7 36.58,7.7l657.78 0c60.96,0 119.36,7.71 175.2,23.75 55.83,15.4 107.81,37.86 156.57,66.1 49.43,28.88 93.7,62.89 133.49,102.69 40.43,40.41 74.45,84.7 103.32,134.11 28.24,48.77 50.71,100.76 66.11,157.23 15.4,55.83 23.75,114.23 23.75,174.56 0,59.69 -8.35,118.08 -23.75,173.91 -15.4,56.47 -37.87,108.45 -66.11,157.88 -28.87,48.76 -62.88,93.04 -103.32,133.47 -39.79,39.78 -84.06,74.45 -133.49,102.68 -48.76,28.88 -101.39,50.7 -157.22,66.1 -55.82,16.05 -114.22,23.75 -174.55,23.75l-1231.51 0c-10.27,0 -20.53,-1.29 -30.81,-3.21 -10.27,-2.57 -19.24,-9.63 -26.94,-21.82 -8.35,-12.19 -14.76,-31.45 -19.26,-58.4 -5.12,-26.31 -7.06,-64.17 -7.06,-114.23z"/>
   <path class="fil1" d="M6097.41 2679.68c0,-60.97 7.71,-119.36 23.75,-175.2 15.4,-55.83 37.86,-107.82 66.1,-156.59 28.88,-49.41 62.89,-93.7 103.32,-134.11 39.78,-39.79 84.07,-73.81 133.48,-102.69 48.77,-28.24 101.39,-50.7 157.23,-66.1 55.83,-16.04 114.23,-23.75 174.56,-23.75l469.76 0c32.72,0 64.81,1.93 95.62,5.13 31.44,3.85 62.24,8.99 92.41,15.41l0 -20.54c0,-25.66 -5.13,-50.05 -14.77,-72.51 -10.26,-23.11 -23.74,-43 -40.41,-59.69 -17.34,-17.33 -37.23,-30.81 -59.69,-40.43 -23.1,-10.27 -47.49,-15.4 -73.16,-15.4l-667.41 0c-10.91,0 -21.18,-0.64 -30.81,-3.21 -10.28,-1.94 -19.25,-9.63 -27.6,-21.83 -7.69,-12.18 -14.12,-31.44 -19.25,-57.75 -4.49,-26.95 -7.06,-64.82 -7.06,-114.23l0 -169.41c0,-49.43 2.57,-87.93 7.06,-114.24 5.13,-26.95 11.56,-46.21 19.25,-58.39 8.35,-12.2 17.33,-19.25 27.6,-21.83 9.63,-1.92 19.89,-3.21 30.81,-3.21l667.41 0c69.3,0 136.05,8.99 200.22,26.95 64.17,17.97 123.86,43 179.69,75.72 55.83,32.72 106.53,71.87 152.09,117.45 45.57,45.56 85.35,96.9 117.44,152.09 32.73,55.83 57.76,116.16 75.73,180.33 17.97,64.18 26.94,130.92 26.94,199.58l0 658.43c0,59.69 -7.69,118.08 -23.74,173.91 -15.41,56.47 -37.87,108.45 -66.1,157.88 -28.24,48.76 -62.89,93.04 -102.68,133.47 -40.43,39.78 -84.72,74.45 -133.48,102.68 -49.42,28.88 -101.4,50.7 -157.87,66.1 -55.83,16.05 -114.23,23.75 -173.92,23.75l-564.08 0c-60.33,0 -118.72,-7.7 -174.56,-23.75 -55.84,-15.4 -108.46,-37.22 -157.23,-66.1 -49.41,-28.23 -93.7,-62.89 -133.48,-102.68 -40.42,-40.43 -74.44,-84.71 -103.32,-133.47 -28.24,-49.43 -50.7,-101.41 -66.1,-157.88 -16.04,-55.83 -23.75,-114.22 -23.75,-173.91zm564.08 0c0,19.25 2.58,37.23 7.71,54.54 5.12,17.33 11.54,32.09 19.89,44.93 8.98,12.19 18.6,22.46 30.17,30.16 10.91,7.07 23.1,10.91 36.58,10.91l564.08 0c12.83,0 25.03,-3.84 36.58,-10.91 10.91,-7.7 21.18,-17.97 29.52,-30.16 8.35,-12.83 14.77,-27.6 19.89,-44.93 5.14,-17.32 7.71,-35.29 7.71,-54.54 0,-19.89 -2.57,-37.87 -7.71,-55.18 -5.12,-17.34 -11.54,-32.09 -19.89,-44.94 -8.34,-12.18 -18.6,-22.46 -29.52,-30.16 -11.54,-7.06 -23.75,-10.91 -36.58,-10.91l-564.08 0c-13.48,0 -25.67,3.84 -36.58,10.91 -11.56,7.7 -21.19,17.97 -30.17,30.16 -8.35,12.84 -14.77,27.6 -19.89,44.94 -5.13,17.32 -7.71,35.29 -7.71,55.18z"/>
   <path class="fil1" d="M8400.75 3252.76l0 -1898.92c0,-10.27 0.64,-21.18 1.93,-30.81 1.92,-10.27 7.71,-19.25 17.97,-27.6 10.27,-7.69 26.32,-14.1 48.78,-19.24 22.46,-4.5 53.9,-7.06 95.62,-7.06l70.58 0c17.34,0 35.3,1.29 52.64,3.21 17.97,1.93 36.58,8.35 55.83,20.54 19.24,11.55 39.15,30.81 60.32,55.82 20.53,25.67 42.99,61.62 66.1,108.46 15.41,-31.45 35.3,-57.75 59.68,-78.94 24.4,-21.81 50.71,-39.78 78.95,-53.27 28.23,-14.1 58.39,-24.38 89.2,-32.08 31.45,-7.71 61.6,-12.83 91.12,-16.69 28.88,-3.22 57.12,-5.13 83.43,-5.77 26.31,-0.65 48.77,-1.29 67.38,-1.29l188.04 0c112.93,0 215.62,17.97 308.04,54.55 92.41,35.93 171.34,86.64 237.44,152.74 65.46,65.45 116.79,144.39 152.74,236.8 35.94,92.4 53.9,195.09 53.9,308.03l0 1231.51c0,10.9 -0.64,21.17 -3.21,30.8 -1.92,10.27 -9.63,19.24 -21.81,27.59 -12.19,8.34 -31.46,14.76 -57.77,19.25 -26.95,4.49 -64.81,7.06 -114.22,7.06l-169.42 0c-49.41,0 -87.91,-2.57 -114.22,-7.06 -26.96,-4.49 -46.21,-10.91 -58.41,-19.25 -12.19,-8.35 -19.25,-17.33 -21.82,-27.59 -1.93,-9.63 -3.21,-19.9 -3.21,-30.8l0 -1231.51c0,-28.24 -4.49,-53.9 -13.47,-77.01 -8.99,-23.1 -21.83,-42.99 -37.88,-59.04 -16.68,-16.69 -35.93,-28.87 -59.68,-38.5 -23.11,-9 -48.77,-13.48 -77,-13.48l-376.07 0c-28.23,0 -53.9,4.48 -77,13.48 -23.11,9.63 -43,21.81 -59.05,38.5 -16.05,16.05 -28.88,35.94 -37.86,59.04 -8.99,23.11 -14.12,48.77 -14.12,77.01l0 1231.51c0,10.9 -0.65,21.17 -3.22,30.8 -1.92,10.27 -8.98,19.24 -21.17,27.59 -12.19,8.34 -32.09,14.76 -58.4,19.25 -26.96,4.49 -64.82,7.06 -114.23,7.06l-169.42 0c-49.41,0 -87.28,-2.57 -114.23,-7.06 -26.31,-4.49 -46.21,-10.91 -58.4,-19.25 -12.19,-8.35 -19.25,-17.33 -21.17,-27.59 -2.58,-9.63 -3.22,-19.9 -3.22,-30.8z"/>
   <path class="fil1" d="M12254.68 2773.37l0 -1419.54c0,-10.26 1.31,-21.19 3.21,-30.82 2.58,-10.27 9.64,-19.22 21.84,-27.58 12.2,-7.69 31.43,-14.11 57.74,-19.26 26.97,-4.48 64.82,-7.05 114.24,-7.05l168.14 0c49.41,0 87.29,2.57 114.24,7.05 26.31,5.15 45.57,11.57 57.74,19.26 12.2,8.36 19.25,17.32 21.83,27.58 1.94,9.63 3.21,20.56 3.21,30.82l0 1898.91c0,10.93 -1.27,21.19 -3.21,30.83 -2.58,10.26 -9.63,19.22 -21.83,27.58 -12.17,8.36 -31.43,14.74 -57.74,19.25 -26.95,4.48 -64.83,7.06 -114.24,7.06l-140.43 0 -0.51 0 -0.51 0 -0.51 0 -0.51 0 -25.67 0 -2.32 0 -2.28 0 -991.54 0c-69.28,0 -136.07,-9 -200.23,-26.95 -64.15,-17.96 -123.84,-42.99 -179.67,-75.72 -55.83,-32.09 -106.51,-71.88 -152.09,-117.46 -46.21,-45.57 -85.35,-96.25 -118.09,-152.09 -32.09,-55.83 -57.77,-115.51 -75.72,-180.34 -17.32,-64.15 -26.31,-130.25 -26.31,-199.56l0 -1983.65c0,-10.27 0.64,-20.53 3.22,-30.8 1.91,-10.26 9.63,-19.25 21.8,-27.58 12.2,-7.72 31.46,-14.14 57.77,-19.25 26.94,-4.51 64.83,-7.05 114.24,-7.05l169.4 0c49.41,0 87.93,2.54 114.24,7.05 26.95,5.11 46.21,11.53 58.41,19.25 12.17,8.33 19.22,17.33 21.8,27.58 1.94,10.27 3.21,20.53 3.21,30.8l0 583.38c0,10.27 0.64,20.53 3.22,30.79 1.94,9.64 8.99,19.26 21.19,26.95 12.81,8.36 32.07,14.78 58.38,19.25 26.94,5.11 64.83,7.06 114.24,7.06l282.38 0c10.27,0 20.53,1.27 30.8,3.21 10.26,2.58 19.25,9.63 27.58,21.83 7.72,12.17 14.14,31.43 19.25,58.38 4.51,26.31 7.06,64.83 7.06,114.24l0 169.4c0,49.41 -2.55,87.3 -7.06,114.24 -5.11,26.31 -11.53,45.58 -19.25,57.78 -8.33,12.16 -17.33,19.89 -27.58,21.79 -10.27,2.58 -20.53,3.22 -30.8,3.22l-282.38 0c-49.38,0 -87.3,2.58 -114.24,7.05 -26.31,5.15 -45.57,11.57 -58.38,19.26 -12.2,8.36 -19.25,17.34 -21.19,27.61 -2.58,9.63 -3.22,19.89 -3.22,30.8l0 667.42c0,25.65 4.48,50.05 14.78,73.16 10.27,22.47 23.74,42.36 40.42,59.68 16.69,16.69 36.48,30.44 59.68,40.42 22.98,9.88 47.47,14.77 73.15,14.77l799.12 0z"/>
   <path class="fil1" d="M13239.9 3139.81l0 -168.77c0,-49.41 1.94,-87.93 7.06,-114.24 4.5,-26.95 10.91,-46.21 19.26,-58.39 7.7,-12.19 16.68,-19.25 26.94,-21.82 10.28,-1.93 20.54,-3.21 30.81,-3.21l1231.51 0c13.47,0 25.66,-2.58 37.22,-7.71 11.55,-4.49 21.82,-11.55 30.16,-19.89 8.35,-8.35 14.76,-18.61 19.89,-29.52 4.49,-11.55 7.06,-23.75 7.06,-36.58 0,-13.48 -2.57,-25.66 -7.06,-37.23 -5.13,-11.54 -11.54,-21.81 -19.89,-30.16 -8.34,-8.34 -18.6,-15.4 -30.16,-19.89 -11.55,-4.48 -23.75,-7.06 -37.22,-7.06l-657.78 0c-60.33,0 -118.09,-7.7 -174.57,-23.11 -55.83,-16.04 -108.45,-37.86 -157.22,-66.73 -48.77,-28.25 -93.7,-62.89 -133.48,-102.69 -40.42,-40.43 -74.44,-84.71 -103.32,-133.48 -28.24,-48.77 -50.06,-101.39 -66.11,-157.86 -15.4,-55.83 -23.11,-114.24 -23.11,-173.93 0,-60.96 7.71,-119.36 23.11,-175.2 16.05,-55.82 37.87,-107.8 66.11,-156.57 28.88,-49.43 62.89,-93.7 103.32,-133.48 39.78,-40.43 84.71,-74.46 133.48,-103.33 48.77,-28.23 101.39,-50.7 157.22,-66.1 56.47,-15.4 114.24,-23.75 174.57,-23.75l1137.17 0c10.91,0 21.17,1.29 31.44,3.21 9.63,2.58 18.62,9.63 26.95,21.83 8.35,12.18 14.77,31.44 19.25,58.39 5.14,26.31 7.06,64.81 7.06,114.24l0 169.41c0,49.41 -1.92,87.28 -7.06,114.23 -4.48,26.31 -10.91,45.57 -19.25,57.75 -8.33,12.2 -17.33,19.89 -26.95,21.83 -10.27,2.57 -20.52,3.21 -31.44,3.21l-1137.17 0c-13.48,0 -25.68,2.57 -36.58,7.06 -11.56,5.13 -21.19,11.54 -29.52,19.89 -9,8.34 -15.42,18.61 -20.54,30.16 -5.14,11.55 -7.71,23.75 -7.71,37.22 0,12.83 2.57,25.03 7.71,36.58 5.12,10.91 11.54,21.19 20.54,29.53 8.33,8.35 17.96,15.41 29.52,19.89 10.9,5.13 23.1,7.7 36.58,7.7l657.78 0c60.96,0 119.36,7.71 175.2,23.75 55.83,15.4 107.81,37.86 156.57,66.1 49.43,28.88 93.7,62.89 133.49,102.69 40.43,40.41 74.45,84.7 103.32,134.11 28.23,48.77 50.71,100.76 66.11,157.23 15.39,55.83 23.75,114.23 23.75,174.56 0,59.69 -8.36,118.08 -23.75,173.91 -15.4,56.47 -37.88,108.45 -66.11,157.88 -28.87,48.76 -62.88,93.04 -103.32,133.47 -39.79,39.78 -84.06,74.45 -133.49,102.68 -48.76,28.88 -101.39,50.7 -157.22,66.1 -55.83,16.05 -114.22,23.75 -174.55,23.75l-1231.51 0c-10.27,0 -20.53,-1.29 -30.81,-3.21 -10.27,-2.57 -19.24,-9.63 -26.94,-21.82 -8.35,-12.19 -14.76,-31.45 -19.26,-58.4 -5.12,-26.31 -7.06,-64.17 -7.06,-114.23z"/>
  </g>
  <g id="_2141248827408">
   <polygon class="fil2" points="14515.64,4268.81 14781.48,4268.81 14781.48,4377.52 14393.23,4377.52 14393.23,3768.4 14515.64,3768.4 "/>
   <path class="fil2" d="M13820.28 4121.97l122.55 0 -61.41 -168.41 -61.14 168.41zm162.03 108.74l-201.78 0 -52.78 146.8 -127.82 0 232.63 -609.11 97.68 0 233.01 609.11 -127.4 0 -53.54 -146.8z"/>
   <polygon class="fil2" points="13346.01,3877.11 13189.64,3877.11 13189.64,4377.52 13068.16,4377.52 13068.16,3877.11 12888.2,3877.11 12888.2,3768.4 13369.98,3768.4 13369.98,3877.11 "/>
   <polygon class="fil2" points="12634.28,4377.52 12536.25,4377.52 12536.25,3768.4 12658.26,3768.4 12658.26,4377.52 "/>
   <path class="fil2" d="M12298.25 4293.68c-10.84,15.6 -24,29.34 -39.25,41.04 -15.15,11.63 -32.28,21.25 -51.21,28.73 -18.7,7.35 -38.7,12.85 -59.96,16.49 -21.35,3.62 -43.99,5.47 -67.76,5.47 -24.84,0 -48.49,-3.01 -70.83,-8.92 -22.57,-5.94 -43.76,-14.93 -63.35,-26.75 -19.63,-11.86 -37.14,-26.41 -52.55,-43.54 -15.12,-16.71 -28.09,-36.16 -38.86,-58.08 -10.58,-21.48 -18.54,-44.75 -23.93,-69.64 -5.27,-24.26 -8.12,-50.47 -8.38,-78.38l-0.09 -49.13c0,-44.59 5.33,-84.48 15.81,-119.48 10.81,-35.96 27.23,-66.9 49.1,-92.63 22.21,-26.28 49,-45.96 80.12,-59.04 30.68,-12.88 65.52,-19.34 104.43,-19.34 31.51,0 60.44,4.16 86.53,12.44 26.6,8.43 50.05,21.16 70.22,38.04 20.33,17.06 36.76,37.68 49.13,61.72 12.18,23.62 20.49,50.6 24.87,80.64l4.03 27.42 -121.62 0 -3.68 -19.66c-5.85,-31.58 -17.71,-54.85 -35.35,-69.71 -17.55,-14.77 -42.16,-22.18 -73.74,-22.18 -21.32,0 -39.82,3.61 -55.36,10.8 -14.99,6.93 -27.74,17.51 -38.06,31.58 -10.84,14.8 -19.21,33.5 -24.87,55.78 -6.04,23.62 -9.15,50.85 -9.24,81.51l0.09 45.9c0,29.47 3.26,55.62 9.79,78.28 6.36,21.95 15.85,41.06 28.32,57.11 12.05,15.7 26.18,27.39 42.16,35.04 16.04,7.67 34.64,11.51 55.71,11.51 13.36,0 25.41,-0.71 35.99,-2.02 10.48,-1.31 20.52,-3.41 29.91,-6.2 8.44,-2.46 16.18,-5.79 23.05,-9.95 4.12,-2.43 7.95,-5.17 11.53,-8.27l0 -91.39 -129.83 0 0 -108.73 251.45 0 0 237.35 -4.32 6.17z"/>
   <polygon class="fil2" points="11568.15,4377.52 11470.13,4377.52 11470.13,3768.4 11592.12,3768.4 11592.12,4377.52 "/>
   <path class="fil2" d="M10908.4 3877.11l0 391.71 53.79 0c25.61,0 48.05,-3.87 67.23,-11.48 18.6,-7.45 34.71,-18.7 48.13,-33.63 13.55,-15.21 23.81,-33.82 30.68,-55.67 7.13,-22.79 10.74,-49.48 10.74,-79.81l0 -32.76c0,-29.53 -3.38,-55.58 -10.16,-78.02 -6.52,-21.77 -16.21,-40.15 -28.9,-55.07 -12.56,-14.77 -27.7,-25.99 -45.32,-33.4 -18.25,-7.71 -39.63,-11.7 -63.86,-11.96l-62.33 0.09zm-122 476.44l0 -585.14 182.38 0c26.28,0 51.24,2.94 74.76,8.82 23.78,5.95 46.03,14.86 66.68,26.73 20.87,12.08 39.34,26.62 55.32,43.56 15.89,16.87 29.57,36.4 40.85,58.36 11.16,21.58 19.59,44.97 25.19,69.91 5.53,24.48 8.38,50.63 8.51,78.15l0.09 35.99c0,28.13 -2.78,54.69 -8.24,79.59 -5.5,25.03 -13.94,48.56 -25.13,70.48 -11.28,22.03 -25.05,41.55 -41.13,58.4 -16.24,17.01 -34.91,31.48 -55.91,43.27 -20.8,11.67 -43.31,20.59 -67.44,26.57 -23.65,5.81 -49.19,8.95 -76.39,9.2l-179.53 0.09 0 -23.97z"/>
   <path class="fil2" d="M9861.55 4121.97l122.54 0 -61.4 -168.41 -61.14 168.41zm162.02 108.74l-201.78 0 -52.77 146.8 -127.82 0 232.62 -609.11 97.69 0 233 609.11 -127.4 0 -53.54 -146.8z"/>
   <polygon class="fil2" points="9387.28,4377.52 9289.25,4377.52 9289.25,3768.4 9411.26,3768.4 9411.26,4377.52 "/>
   <path class="fil2" d="M8726.23 4042.26l89.81 0c15.89,0 29.95,-1.98 42.07,-5.91 11.44,-3.7 21.44,-9.3 29.82,-16.65 8.08,-7.1 14.19,-15.41 18.18,-24.77 4.13,-9.63 6.2,-20.91 6.2,-33.66 0,-14.48 -2.05,-26.97 -6.07,-37.4 -3.74,-9.68 -9.49,-18.02 -17.01,-24.77 -7.7,-6.93 -17.45,-12.27 -29.02,-15.88 -12.75,-4.03 -27.68,-6.11 -44.55,-6.2l-89.43 0.09 0 165.16zm93.59 108.74l-93.59 0 0 226.52 -122.26 0 0 -609.11 209.71 0c33.84,0 64.09,3.97 90.64,11.85 27.52,8.12 51.14,20.59 70.7,37.14 20.01,16.91 35.06,37.72 45,62.26 9.68,23.88 14.54,51.21 14.54,81.73 0,19.75 -2.75,38.52 -8.22,56.16 -5.43,17.67 -13.68,34.16 -24.64,49.38 -10.93,14.99 -23.97,28.09 -39.03,39.25 -7.99,5.94 -16.58,11.31 -25.69,16.14l122.32 220.6 0 34.59 -117.68 0 -121.81 -226.52z"/>
   <path class="fil2" d="M8031.07 4121.97l122.54 0 -61.4 -168.41 -61.14 168.41zm162.02 108.74l-201.78 0 -52.77 146.8 -127.82 0 232.63 -609.11 97.68 0 233.01 609.11 -127.4 0 -53.54 -146.8z"/>
   <polygon class="fil2" points="7556.79,4377.52 7458.5,4377.52 7458.5,4118.62 7223.61,4118.62 7223.61,4377.52 7101.61,4377.52 7101.61,3768.4 7223.61,3768.4 7223.61,4009.91 7458.5,4009.91 7458.5,3768.4 7580.76,3768.4 7580.76,4377.52 "/>
   <polygon class="fil2" points="6847.69,4377.52 6760.43,4377.52 6514.76,4001.6 6514.76,4377.52 6392.47,4377.52 6392.47,3768.4 6503.7,3768.4 6750.04,4146.21 6750.04,3768.4 6871.66,3768.4 6871.66,4377.52 "/>
   <polygon class="fil2" points="6099.19,4118.62 5880.06,4118.62 5880.06,4268.81 6162.52,4268.81 6162.52,4377.52 5758.06,4377.52 5758.06,3768.4 6158.68,3768.4 6158.68,3877.11 5880.06,3877.11 5880.06,4009.91 6123.17,4009.91 6123.17,4118.62 "/>
   <path class="fil2" d="M5520.06 4293.68c-10.83,15.6 -24,29.34 -39.25,41.04 -15.14,11.63 -32.28,21.25 -51.2,28.73 -18.7,7.35 -38.71,12.85 -59.97,16.49 -21.35,3.62 -43.98,5.47 -67.76,5.47 -24.83,0 -48.48,-3.01 -70.83,-8.92 -22.56,-5.94 -43.75,-14.93 -63.35,-26.75 -19.62,-11.86 -37.13,-26.41 -52.54,-43.54 -15.12,-16.71 -28.1,-36.16 -38.87,-58.08 -10.58,-21.48 -18.53,-44.75 -23.93,-69.64 -5.27,-24.26 -8.12,-50.47 -8.38,-78.38l-0.09 -49.13c0,-44.59 5.34,-84.48 15.82,-119.48 10.8,-35.96 27.23,-66.9 49.09,-92.63 22.21,-26.28 49,-45.96 80.13,-59.04 30.68,-12.88 65.52,-19.34 104.43,-19.34 31.51,0 60.44,4.16 86.52,12.44 26.6,8.43 50.06,21.16 70.22,38.04 20.32,17.06 36.76,37.68 49.13,61.72 12.17,23.62 20.48,50.6 24.87,80.64l4.02 27.42 -121.62 0 -3.68 -19.66c-5.85,-31.58 -17.7,-54.85 -35.35,-69.71 -17.55,-14.77 -42.16,-22.18 -73.74,-22.18 -21.31,0 -39.82,3.61 -55.35,10.8 -14.99,6.93 -27.75,17.51 -38.07,31.58 -10.83,14.8 -19.21,33.5 -24.87,55.78 -6.04,23.62 -9.14,50.85 -9.23,81.51l0.09 45.9c0,29.47 3.26,55.62 9.78,78.28 6.36,21.95 15.86,41.06 28.32,57.11 12.05,15.7 26.18,27.39 42.16,35.04 16.05,7.67 34.65,11.51 55.71,11.51 13.36,0 25.41,-0.71 35.99,-2.02 10.49,-1.31 20.52,-3.41 29.92,-6.2 8.43,-2.46 16.17,-5.79 23.04,-9.95 4.13,-2.43 7.96,-5.17 11.54,-8.27l0 -91.39 -129.84 0 0 -108.73 251.45 0 0 237.35 -4.32 6.17z"/>
   <polygon class="fil2" points="4789.96,4377.52 4702.7,4377.52 4457.04,4001.6 4457.04,4377.52 4334.75,4377.52 4334.75,3768.4 4445.98,3768.4 4692.32,4146.21 4692.32,3768.4 4813.94,3768.4 4813.94,4377.52 "/>
   <polygon class="fil2" points="4041.48,4118.62 3822.34,4118.62 3822.34,4268.81 4104.81,4268.81 4104.81,4377.52 3700.35,4377.52 3700.35,3768.4 4100.97,3768.4 4100.97,3877.11 3822.34,3877.11 3822.34,4009.91 4065.45,4009.91 4065.45,4118.62 "/>
  </g>
  <g id="_2141248003424">
   <g>
    <path class="fil3" d="M2219.06 3211.42l-291.92 291.92c-56.25,56.25 -139.81,46.23 -204.54,0l-19.16 -13.69 -0.02 0.03 -23.33 -16.67c-64.73,-46.22 -155.51,-31.1 -201.74,33.64l-168.14 235.39c-46.23,64.73 -31.1,155.5 33.63,201.74l235.39 168.13 0.17 0.11c139.82,137.6 428.99,124.8 582.57,-25.45 0.95,-0.9 1.88,-1.8 2.81,-2.73l337.16 -337.16 0.01 0 324.09 -324.1 409.07 -409.07c56.25,-56.25 56.25,-148.29 0,-204.54l-204.54 -204.53 -1022.68 -1022.68c-56.25,-56.25 -148.29,-56.25 -204.54,-0.01l-204.54 204.55c-56.25,56.24 -56.25,148.28 0,204.53l814.07 814.07 4.08 4.08c56.25,56.25 56.24,148.29 0,204.53l-0.01 0.01 -197.9 197.9 -0.01 0z"/>
    <path class="fil3" d="M669.77 2204.01l1022.68 1022.68c56.26,56.25 148.29,56.25 204.55,0l204.53 -204.54c56.25,-56.25 56.25,-148.28 0,-204.54l-814.07 -814.07 -4.07 -4.07c-56.25,-56.25 -56.25,-148.29 0,-204.54l0.01 0 197.9 -197.91 0 0.01 291.93 -291.93c56.24,-56.24 139.8,-46.23 204.53,0l19.16 13.69 0.03 -0.02 23.33 16.66c64.73,46.23 155.51,31.11 201.74,-33.63l168.13 -235.39c46.23,-64.73 31.11,-155.51 -33.63,-201.74l-235.39 -168.14 -0.16 -0.1c-139.82,-137.61 -429,-124.81 -582.57,25.45 -0.96,0.89 -1.89,1.8 -2.82,2.73l-337.16 337.16 0 0 -324.1 324.09 -409.07 409.07c-56.25,56.26 -56.25,148.29 0,204.54l204.54 204.54z"/>
   </g>
   <path class="fil3" d="M12535.77 459.37c188.21,0 340.78,152.58 340.78,340.78 0,188.21 -152.58,340.78 -340.78,340.78 -188.21,0 -340.78,-152.58 -340.78,-340.78 0,-188.21 152.58,-340.78 340.78,-340.78z"/>
  </g>
 </g>
</svg>
