<?xml version="1.0" encoding="UTF-8"?>
<!DOCTYPE svg PUBLIC "-//W3C//DTD SVG 1.1//EN" "http://www.w3.org/Graphics/SVG/1.1/DTD/svg11.dtd">
<!-- Creator: CorelDRAW 2017 -->
<svg xmlns="http://www.w3.org/2000/svg" xml:space="preserve" width="146.951mm" height="41.8213mm" version="1.1" style="shape-rendering:geometricPrecision; text-rendering:geometricPrecision; image-rendering:optimizeQuality; fill-rule:evenodd; clip-rule:evenodd"
viewBox="0 0 14501.58 4127.06"
 xmlns:xlink="http://www.w3.org/1999/xlink">
 <defs>
  <style type="text/css">
   <![CDATA[
    .fil3 {fill:#00F2FF}
    .fil1 {fill:#00F2FF;fill-rule:nonzero}
    .fil2 {fill:gray;fill-rule:nonzero}
    .fil0 {fill:white;fill-rule:nonzero}
   ]]>
  </style>
 </defs>
 <g id="Camada_x0020_1">
  <metadata id="CorelCorpID_0Corel-Layer"/>
  <path class="fil0" d="M3057.18 2842.47l0 -177.17c0,-51.87 2.03,-92.3 7.41,-119.92 4.73,-28.29 11.46,-48.5 20.22,-61.29 8.08,-12.8 17.51,-20.21 28.28,-22.9 10.79,-2.02 21.56,-3.37 32.34,-3.37l1292.74 0c14.15,0 26.94,-2.7 39.08,-8.09 12.12,-4.72 22.89,-12.13 31.65,-20.88 8.76,-8.76 15.49,-19.54 20.88,-30.99 4.72,-12.13 7.41,-24.93 7.41,-38.4 0,-14.15 -2.69,-26.94 -7.41,-39.08 -5.39,-12.12 -12.12,-22.89 -20.88,-31.66 -8.75,-8.75 -19.53,-16.16 -31.65,-20.88 -12.14,-4.71 -24.93,-7.41 -39.08,-7.41l-690.49 0c-63.33,0 -123.97,-8.08 -183.24,-24.26 -58.61,-16.84 -113.84,-39.74 -165.04,-70.05 -51.2,-29.65 -98.36,-66.02 -140.12,-107.79 -42.43,-42.44 -78.14,-88.92 -108.45,-140.12 -29.64,-51.2 -52.55,-106.43 -69.39,-165.71 -16.16,-58.61 -24.26,-119.92 -24.26,-182.57 0,-63.99 8.09,-125.3 24.26,-183.91 16.85,-58.6 39.75,-113.16 69.39,-164.36 30.32,-51.89 66.02,-98.36 108.45,-140.12 41.76,-42.44 88.92,-78.16 140.12,-108.46 51.2,-29.63 106.43,-53.22 165.04,-69.38 59.28,-16.16 119.92,-24.93 183.24,-24.93l1193.7 0c11.46,0 22.22,1.35 33,3.37 10.11,2.7 19.55,10.11 28.29,22.91 8.76,12.79 15.5,33 20.21,61.29 5.4,27.62 7.41,68.03 7.41,119.92l0 177.84c0,51.87 -2.01,91.62 -7.41,119.91 -4.71,27.62 -11.45,47.83 -20.21,60.62 -8.74,12.81 -18.19,20.88 -28.29,22.91 -10.78,2.69 -21.54,3.37 -33,3.37l-1193.7 0c-14.15,0 -26.96,2.69 -38.4,7.41 -12.14,5.39 -22.24,12.12 -30.99,20.88 -9.44,8.75 -16.18,19.54 -21.56,31.66 -5.4,12.13 -8.09,24.93 -8.09,39.07 0,13.47 2.69,26.28 8.09,38.4 5.38,11.46 12.12,22.24 21.56,31 8.74,8.76 18.85,16.17 30.99,20.88 11.44,5.39 24.25,8.08 38.4,8.08l690.49 0c63.99,0 125.3,8.09 183.91,24.93 58.61,16.16 113.17,39.74 164.36,69.38 51.89,30.32 98.36,66.02 140.13,107.79 42.44,42.42 78.15,88.91 108.45,140.78 29.64,51.2 53.23,105.77 69.39,165.05 16.16,58.61 24.93,119.91 24.93,183.24 0,62.65 -8.76,123.95 -24.93,182.55 -16.16,59.28 -39.75,113.84 -69.39,165.73 -30.31,51.19 -66.01,97.67 -108.45,140.11 -41.77,41.76 -88.24,78.15 -140.13,107.78 -51.19,30.32 -106.43,53.22 -165.04,69.38 -58.6,16.85 -119.9,24.93 -183.23,24.93l-1292.74 0c-10.78,0 -21.55,-1.35 -32.34,-3.37 -10.78,-2.69 -20.2,-10.11 -28.28,-22.9 -8.76,-12.8 -15.49,-33.01 -20.22,-61.3 -5.38,-27.62 -7.41,-67.36 -7.41,-119.91z"/>
  <path class="fil0" d="M5291.34 2359.47c0,-64.01 8.09,-125.3 24.93,-183.91 16.16,-58.61 39.74,-113.18 69.38,-164.38 30.32,-51.87 66.02,-98.36 108.45,-140.78 41.76,-41.77 88.25,-77.48 140.12,-107.79 51.2,-29.64 106.43,-53.22 165.05,-69.38 58.61,-16.84 119.91,-24.93 183.24,-24.93l493.11 0c34.35,0 68.03,2.02 100.37,5.39 33,4.05 65.34,9.43 97.01,16.17l0 -21.56c0,-26.94 -5.39,-52.54 -15.5,-76.11 -10.77,-24.26 -24.92,-45.14 -42.42,-62.65 -18.2,-18.19 -39.08,-32.34 -62.65,-42.44 -24.25,-10.78 -49.85,-16.16 -76.8,-16.16l-700.59 0c-11.46,0 -22.23,-0.67 -32.34,-3.37 -10.79,-2.03 -20.21,-10.11 -28.97,-22.91 -8.07,-12.79 -14.82,-33 -20.21,-60.62 -4.72,-28.29 -7.41,-68.04 -7.41,-119.91l0 -177.84c0,-51.89 2.69,-92.3 7.41,-119.92 5.39,-28.29 12.14,-48.5 20.21,-61.29 8.76,-12.81 18.19,-20.21 28.97,-22.91 10.11,-2.01 20.88,-3.37 32.34,-3.37l700.59 0c72.75,0 142.81,9.43 210.18,28.29 67.36,18.87 130.02,45.14 188.62,79.49 58.61,34.35 111.83,75.44 159.65,123.28 47.83,47.82 89.59,101.71 123.28,159.65 34.36,58.61 60.63,121.93 79.5,189.29 18.86,67.37 28.28,137.43 28.28,209.5l0 691.17c0,62.65 -8.07,123.95 -24.92,182.55 -16.17,59.28 -39.75,113.84 -69.38,165.73 -29.64,51.19 -66.02,97.67 -107.78,140.11 -42.44,41.76 -88.93,78.15 -140.12,107.78 -51.88,30.32 -106.44,53.22 -165.72,69.38 -58.61,16.85 -119.91,24.93 -182.56,24.93l-592.13 0c-63.33,0 -124.63,-8.08 -183.24,-24.93 -58.62,-16.16 -113.85,-39.07 -165.05,-69.38 -51.87,-29.63 -98.36,-66.02 -140.12,-107.78 -42.43,-42.44 -78.14,-88.92 -108.45,-140.11 -29.64,-51.89 -53.22,-106.45 -69.38,-165.73 -16.84,-58.61 -24.93,-119.9 -24.93,-182.55zm592.13 0c0,20.21 2.7,39.08 8.09,57.26 5.38,18.19 12.12,33.69 20.88,47.16 9.42,12.8 19.53,23.58 31.67,31.66 11.45,7.42 24.25,11.45 38.4,11.45l592.13 0c13.47,0 26.28,-4.03 38.4,-11.45 11.46,-8.08 22.23,-18.86 30.99,-31.66 8.76,-13.47 15.5,-28.97 20.88,-47.16 5.4,-18.18 8.09,-37.05 8.09,-57.26 0,-20.88 -2.69,-39.75 -8.09,-57.93 -5.38,-18.2 -12.12,-33.69 -20.88,-47.17 -8.75,-12.79 -19.53,-23.58 -30.99,-31.66 -12.12,-7.41 -24.93,-11.45 -38.4,-11.45l-592.13 0c-14.15,0 -26.95,4.04 -38.4,11.45 -12.14,8.08 -22.24,18.87 -31.67,31.66 -8.76,13.48 -15.5,28.97 -20.88,47.17 -5.39,18.18 -8.09,37.05 -8.09,57.93z"/>
  <path class="fil0" d="M7523.73 2961.04l0 -1993.33c0,-10.78 0.67,-22.23 2.02,-32.34 2.01,-10.78 8.09,-20.21 18.86,-28.97 10.78,-8.07 27.63,-14.8 51.21,-20.2 23.58,-4.73 56.58,-7.41 100.37,-7.41l74.09 0c18.2,0 37.06,1.35 55.25,3.37 18.86,2.02 38.4,8.76 58.61,21.56 20.2,12.13 41.09,32.34 63.32,58.6 21.55,26.95 45.13,64.69 69.38,113.85 16.17,-33.01 37.06,-60.62 62.64,-82.86 25.61,-22.89 53.23,-41.76 82.87,-55.91 29.63,-14.8 61.29,-25.59 93.63,-33.67 33.01,-8.09 64.67,-13.47 95.65,-17.52 30.32,-3.37 59.96,-5.39 87.58,-6.06 27.62,-0.68 51.2,-1.35 70.73,-1.35l197.39 0c118.55,0 226.34,18.87 323.36,57.27 97.01,37.72 179.86,90.95 249.24,160.33 68.71,68.7 122.59,151.57 160.33,248.57 37.73,97 56.58,204.79 56.58,323.35l0 1292.74c0,11.44 -0.67,22.22 -3.37,32.33 -2.01,10.78 -10.11,20.2 -22.89,28.96 -12.8,8.75 -33.02,15.49 -60.64,20.21 -28.29,4.72 -68.03,7.41 -119.9,7.41l-177.85 0c-51.87,0 -92.28,-2.69 -119.9,-7.41 -28.3,-4.72 -48.5,-11.46 -61.31,-20.21 -12.8,-8.76 -20.21,-18.19 -22.9,-28.96 -2.02,-10.11 -3.37,-20.89 -3.37,-32.33l0 -1292.74c0,-29.64 -4.72,-56.58 -14.14,-80.84 -9.43,-24.25 -22.91,-45.13 -39.76,-61.97 -17.51,-17.52 -37.72,-30.31 -62.64,-40.41 -24.26,-9.44 -51.2,-14.15 -80.83,-14.15l-394.76 0c-29.63,0 -56.58,4.71 -80.83,14.15 -24.26,10.11 -45.14,22.89 -61.98,40.41 -16.85,16.85 -30.32,37.73 -39.74,61.97 -9.43,24.26 -14.82,51.2 -14.82,80.84l0 1292.74c0,11.44 -0.68,22.22 -3.37,32.33 -2.01,10.78 -9.42,20.2 -22.22,28.96 -12.8,8.75 -33.69,15.49 -61.3,20.21 -28.3,4.72 -68.04,7.41 -119.91,7.41l-177.85 0c-51.87,0 -91.62,-2.69 -119.91,-7.41 -27.62,-4.72 -48.5,-11.46 -61.3,-20.21 -12.8,-8.76 -20.21,-18.19 -22.22,-28.96 -2.7,-10.11 -3.37,-20.89 -3.37,-32.33z"/>
  <path class="fil0" d="M11513.99 2457.81l0 -1490.12c0,-10.77 1.37,-22.24 3.37,-32.35 2.7,-10.78 10.12,-20.18 22.92,-28.95 12.81,-8.07 32.99,-14.81 60.61,-20.22 28.31,-4.71 68.04,-7.4 119.92,-7.4l176.49 0c51.87,0 91.63,2.69 119.92,7.4 27.62,5.41 47.83,12.15 60.61,20.22 12.81,8.77 20.21,18.18 22.91,28.95 2.03,10.11 3.37,21.58 3.37,32.35l0 1993.32c0,11.48 -1.33,22.24 -3.37,32.36 -2.7,10.77 -10.11,20.18 -22.91,28.95 -12.78,8.77 -32.99,15.47 -60.61,20.21 -28.29,4.71 -68.05,7.41 -119.92,7.41l-147.41 0 -0.53 0 -0.53 0 -0.53 0 -0.53 0 -26.95 0 -2.44 0 -2.4 0 -1021.75 0c-72.72,0 -142.83,-9.44 -210.19,-28.29 -67.35,-18.85 -130,-45.13 -188.6,-79.49 -58.61,-33.69 -111.82,-75.45 -159.65,-123.29 -48.5,-47.83 -89.59,-101.03 -123.96,-159.65 -33.69,-58.61 -60.64,-121.25 -79.49,-189.3 -18.19,-67.34 -27.62,-136.73 -27.62,-209.48l0 -2082.28c0,-10.78 0.66,-21.55 3.37,-32.33 2,-10.77 10.11,-20.21 22.88,-28.95 12.81,-8.1 33.03,-14.84 60.64,-20.21 28.29,-4.74 68.05,-7.4 119.92,-7.4l177.84 0c51.87,0 92.3,2.66 119.92,7.4 28.28,5.37 48.5,12.11 61.31,20.21 12.77,8.74 20.18,18.19 22.88,28.95 2.03,10.78 3.37,21.55 3.37,32.33l0 612.38c0,10.78 0.67,21.55 3.37,32.32 2.04,10.12 9.44,20.22 22.25,28.29 13.44,8.77 33.66,15.51 61.28,20.21 28.28,5.37 68.04,7.41 119.92,7.41l296.41 0c10.77,0 21.54,1.33 32.32,3.37 10.78,2.7 20.22,10.11 28.95,22.91 8.11,12.78 14.84,32.99 20.22,61.28 4.74,27.62 7.4,68.05 7.4,119.92l0 177.83c0,51.87 -2.66,91.64 -7.4,119.92 -5.38,27.62 -12.11,47.84 -20.22,60.65 -8.73,12.77 -18.18,20.88 -28.95,22.87 -10.78,2.7 -21.55,3.37 -32.32,3.37l-296.41 0c-51.88,0 -91.64,2.7 -119.92,7.4 -27.62,5.41 -47.84,12.15 -61.28,20.22 -12.81,8.77 -20.21,18.21 -22.25,28.98 -2.69,10.11 -3.37,20.88 -3.37,32.33l0 700.6c0,26.92 4.71,52.54 15.51,76.8 10.78,23.59 24.92,44.47 42.42,62.64 17.52,17.52 38.3,31.95 62.65,42.43 24.12,10.37 49.84,15.5 76.79,15.5l819.76 0z"/>
  <path class="fil1" d="M11425.02 385.73c0,-53.44 9.64,-103.45 29.82,-149.91 20.15,-47.32 48.24,-88.56 82.4,-122.73 35.08,-35.08 76.28,-62.26 122.73,-82.4 46.5,-20.19 96.47,-30.69 149.09,-30.69 52.58,0 102.54,10.5 149.91,30.69 46.45,20.14 87.65,47.32 121.86,82.4 35.08,34.17 62.26,75.41 82.4,122.73 20.19,46.46 29.83,96.47 29.83,149.91 0,52.62 -9.64,102.59 -29.83,149.96 -20.14,46.45 -47.32,86.78 -82.4,121.86 -34.21,35.95 -75.41,63.13 -121.86,83.27 -47.37,20.19 -97.33,29.82 -149.91,29.82 -52.62,0 -102.59,-9.63 -149.09,-29.82 -46.45,-20.14 -87.65,-47.32 -122.73,-83.27 -34.16,-35.08 -62.25,-75.41 -82.4,-121.86 -20.18,-47.37 -29.82,-97.34 -29.82,-149.96z"/>
  <path class="fil0" d="M12429.42 2842.47l0 -177.17c0,-51.87 2.03,-92.3 7.41,-119.92 4.73,-28.29 11.46,-48.5 20.22,-61.29 8.08,-12.8 17.51,-20.21 28.28,-22.9 10.79,-2.02 21.56,-3.37 32.34,-3.37l1292.74 0c14.14,0 26.94,-2.7 39.07,-8.09 12.13,-4.72 22.9,-12.13 31.66,-20.88 8.76,-8.76 15.49,-19.54 20.88,-30.99 4.72,-12.13 7.41,-24.93 7.41,-38.4 0,-14.15 -2.69,-26.94 -7.41,-39.08 -5.39,-12.12 -12.12,-22.89 -20.88,-31.66 -8.75,-8.75 -19.53,-16.16 -31.66,-20.88 -12.13,-4.71 -24.93,-7.41 -39.07,-7.41l-690.49 0c-63.33,0 -123.97,-8.08 -183.24,-24.26 -58.61,-16.84 -113.84,-39.74 -165.04,-70.05 -51.2,-29.65 -98.36,-66.02 -140.12,-107.79 -42.43,-42.44 -78.14,-88.92 -108.45,-140.12 -29.64,-51.2 -52.55,-106.43 -69.39,-165.71 -16.16,-58.61 -24.26,-119.92 -24.26,-182.57 0,-63.99 8.09,-125.3 24.26,-183.91 16.85,-58.6 39.75,-113.16 69.39,-164.36 30.32,-51.89 66.02,-98.36 108.45,-140.12 41.76,-42.44 88.92,-78.16 140.12,-108.46 51.2,-29.63 106.43,-53.22 165.04,-69.38 59.28,-16.16 119.92,-24.93 183.24,-24.93l1193.7 0c11.46,0 22.22,1.35 33,3.37 10.11,2.7 19.55,10.11 28.29,22.91 8.76,12.79 15.5,33 20.21,61.29 5.4,27.62 7.41,68.03 7.41,119.92l0 177.84c0,51.87 -2.01,91.62 -7.41,119.91 -4.71,27.62 -11.45,47.83 -20.21,60.62 -8.74,12.81 -18.19,20.88 -28.29,22.91 -10.78,2.69 -21.54,3.37 -33,3.37l-1193.7 0c-14.15,0 -26.96,2.69 -38.4,7.41 -12.14,5.39 -22.24,12.12 -30.99,20.88 -9.44,8.75 -16.18,19.54 -21.56,31.66 -5.4,12.13 -8.09,24.93 -8.09,39.07 0,13.47 2.69,26.28 8.09,38.4 5.38,11.46 12.12,22.24 21.56,31 8.74,8.76 18.85,16.17 30.99,20.88 11.44,5.39 24.25,8.08 38.4,8.08l690.49 0c63.99,0 125.3,8.09 183.91,24.93 58.61,16.16 113.17,39.74 164.36,69.38 51.89,30.32 98.36,66.02 140.13,107.79 42.44,42.42 78.15,88.91 108.45,140.78 29.63,51.2 53.23,105.77 69.39,165.05 16.15,58.61 24.93,119.91 24.93,183.24 0,62.65 -8.77,123.95 -24.93,182.55 -16.16,59.28 -39.76,113.84 -69.39,165.73 -30.31,51.19 -66.01,97.67 -108.45,140.11 -41.77,41.76 -88.24,78.15 -140.13,107.78 -51.19,30.32 -106.43,53.22 -165.04,69.38 -58.61,16.85 -119.9,24.93 -183.23,24.93l-1292.74 0c-10.78,0 -21.55,-1.35 -32.34,-3.37 -10.78,-2.69 -20.2,-10.11 -28.28,-22.9 -8.76,-12.8 -15.49,-33.01 -20.22,-61.3 -5.38,-27.62 -7.41,-67.36 -7.41,-119.91z"/>
  <path class="fil2" d="M3595.7 3848.63l-228.7 0 0 156.75 294.78 0 0 113.45 -422.11 0 0 -635.69 418.1 0 0 113.45 -290.77 0 0 138.6 253.71 0 0 113.45 -25.02 0zm764.49 270.19l-91.06 0 -256.39 -392.32 0 392.32 -127.63 0 0 -635.69 116.08 0 257.09 394.28 0 -394.28 126.93 0 0 635.69 -25.02 0zm767.15 -87.49c-11.31,16.28 -25.06,30.62 -40.96,42.83 -15.81,12.15 -33.69,22.18 -53.44,29.99 -19.52,7.68 -40.4,13.41 -62.58,17.21 -22.29,3.77 -45.91,5.7 -70.73,5.7 -25.91,0 -50.6,-3.13 -73.91,-9.31 -23.56,-6.2 -45.67,-15.57 -66.12,-27.92 -20.49,-12.37 -38.76,-27.55 -54.84,-45.43 -15.78,-17.45 -29.32,-37.73 -40.57,-60.61 -11.03,-22.41 -19.34,-46.7 -24.98,-72.68 -5.51,-25.32 -8.48,-52.68 -8.74,-81.8l-0.1 -51.27c0,-46.54 5.57,-88.16 16.51,-124.7 11.28,-37.53 28.42,-69.82 51.24,-96.67 23.18,-27.41 51.14,-47.97 83.62,-61.61 32.03,-13.44 68.39,-20.18 108.99,-20.18 32.89,0 63.08,4.33 90.3,12.98 27.76,8.8 52.24,22.08 73.29,39.69 21.21,17.81 38.36,39.34 51.27,64.41 12.71,24.66 21.38,52.81 25.95,84.17l4.2 28.62 -126.93 0 -3.84 -20.52c-6.1,-32.95 -18.47,-57.24 -36.89,-72.75 -18.32,-15.41 -44,-23.15 -76.96,-23.15 -22.24,0 -41.56,3.77 -57.77,11.28 -15.65,7.23 -28.95,18.28 -39.73,32.95 -11.31,15.44 -20.05,34.96 -25.95,58.21 -6.31,24.65 -9.54,53.07 -9.64,85.06l0.1 47.9c0,30.75 3.4,58.04 10.21,81.69 6.63,22.91 16.54,42.87 29.56,59.6 12.57,16.38 27.32,28.59 43.99,36.56 16.75,8 36.16,12.01 58.14,12.01 13.94,0 26.52,-0.73 37.56,-2.1 10.94,-1.36 21.41,-3.57 31.22,-6.47 8.8,-2.57 16.87,-6.03 24.05,-10.37 4.3,-2.54 8.31,-5.41 12.04,-8.63l0 -95.38 -135.49 0 0 -113.48 262.42 0 0 247.71 -4.5 6.43zm616.28 -182.7l-228.7 0 0 156.75 294.79 0 0 113.45 -422.11 0 0 -635.69 418.1 0 0 113.45 -290.78 0 0 138.6 253.72 0 0 113.45 -25.03 0zm764.49 270.19l-91.06 0 -256.38 -392.32 0 392.32 -127.63 0 0 -635.69 116.08 0 257.09 394.28 0 -394.28 126.93 0 0 635.69 -25.03 0zm764.19 0l-102.57 0 0 -270.19 -245.15 0 0 270.19 -127.32 0 0 -635.69 127.32 0 0 252.05 245.15 0 0 -252.05 127.59 0 0 635.69 -25.02 0zm627.53 -153.21l-210.59 0 -55.08 153.21 -133.4 0 242.78 -635.69 101.94 0 243.18 635.69 -132.96 0 -55.87 -153.21zm-169.09 -113.49l127.89 0 -64.08 -175.75 -63.81 175.75zm777.66 30.29l-97.67 0 0 236.41 -127.6 0 0 -635.69 218.86 0c35.33,0 66.89,4.13 94.61,12.37 28.72,8.47 53.37,21.48 73.79,38.76 20.88,17.64 36.59,39.35 46.96,64.97 10.11,24.92 15.18,53.45 15.18,85.3 0,20.61 -2.87,40.19 -8.58,58.61 -5.66,18.44 -14.27,35.65 -25.72,51.53 -11.41,15.65 -25.02,29.33 -40.73,40.96 -8.34,6.21 -17.31,11.81 -26.82,16.85l127.67 230.24 0 36.09 -122.83 0 -127.12 -236.41zm-97.67 -113.48l93.73 0c16.58,0 31.26,-2.07 43.9,-6.18 11.94,-3.87 22.38,-9.7 31.12,-17.38 8.44,-7.4 14.8,-16.08 18.98,-25.85 4.3,-10.05 6.47,-21.82 6.47,-35.13 0,-15.11 -2.14,-28.15 -6.35,-39.03 -3.9,-10.11 -9.91,-18.81 -17.74,-25.85 -8.04,-7.24 -18.21,-12.81 -30.29,-16.58 -13.31,-4.2 -28.88,-6.37 -46.5,-6.47l-93.33 0.1 0 172.36zm664.92 349.88l-102.31 0 0 -635.69 127.33 0 0 635.69 -25.02 0zm631.48 -153.21l-210.58 0 -55.08 153.21 -133.4 0 242.78 -635.69 101.94 0 243.18 635.69 -132.97 0 -55.87 -153.21zm-169.08 -113.49l127.89 0 -64.08 -175.75 -63.81 175.75zm756.55 241.68l0 -610.67 190.34 0c27.42,0 53.48,3.07 78.03,9.21 24.82,6.2 48.03,15.5 69.58,27.89 21.78,12.6 41.06,27.78 57.74,45.46 16.58,17.61 30.86,37.99 42.63,60.91 11.64,22.52 20.45,46.93 26.29,72.96 5.77,25.55 8.73,52.84 8.87,81.56l0.1 37.56c0,29.35 -2.9,57.07 -8.61,83.06 -5.73,26.11 -14.55,50.66 -26.22,73.55 -11.77,22.98 -26.15,43.36 -42.93,60.95 -16.95,17.74 -36.43,32.85 -58.34,45.17 -21.72,12.18 -45.21,21.48 -70.39,27.72 -24.68,6.07 -51.34,9.34 -79.73,9.6l-187.37 0.1 0 -25.02zm127.33 -497.23l0 408.8 56.14 0c26.71,0 50.13,-4.04 70.15,-11.97 19.41,-7.78 36.23,-19.52 50.23,-35.09 14.14,-15.88 24.86,-35.3 32.02,-58.11 7.44,-23.78 11.21,-51.63 11.21,-83.29l0 -34.19c0,-30.83 -3.53,-58.01 -10.61,-81.42 -6.8,-22.72 -16.91,-41.9 -30.16,-57.48 -13.11,-15.4 -28.91,-27.12 -47.3,-34.85 -19.05,-8.04 -41.36,-12.21 -66.65,-12.47l-65.04 0.1zm698.01 522.24l-102.3 0 0 -635.69 127.32 0 0 635.69 -25.02 0zm771.29 -87.49c-11.3,16.28 -25.05,30.62 -40.95,42.83 -15.82,12.15 -33.7,22.18 -53.45,29.99 -19.51,7.68 -40.39,13.41 -62.58,17.21 -22.28,3.77 -45.9,5.7 -70.72,5.7 -25.92,0 -50.6,-3.13 -73.92,-9.31 -23.55,-6.2 -45.66,-15.57 -66.12,-27.92 -20.48,-12.37 -38.75,-27.55 -54.84,-45.43 -15.78,-17.45 -29.32,-37.73 -40.56,-60.61 -11.04,-22.41 -19.35,-46.7 -24.99,-72.68 -5.51,-25.32 -8.48,-52.68 -8.74,-81.8l-0.1 -51.27c0,-46.54 5.58,-88.16 16.51,-124.7 11.28,-37.53 28.42,-69.82 51.25,-96.67 23.18,-27.41 51.14,-47.97 83.62,-61.61 32.02,-13.44 68.38,-20.18 108.98,-20.18 32.89,0 63.08,4.33 90.31,12.98 27.75,8.8 52.23,22.08 73.28,39.69 21.22,17.81 38.36,39.34 51.28,64.41 12.7,24.66 21.37,52.81 25.94,84.17l4.2 28.62 -126.93 0 -3.83 -20.52c-6.11,-32.95 -18.48,-57.24 -36.9,-72.75 -18.32,-15.41 -43.99,-23.15 -76.95,-23.15 -22.25,0 -41.57,3.77 -57.78,11.28 -15.64,7.23 -28.95,18.28 -39.73,32.95 -11.31,15.44 -20.04,34.96 -25.95,58.21 -6.3,24.65 -9.53,53.07 -9.63,85.06l0.1 47.9c0,30.75 3.39,58.04 10.2,81.69 6.64,22.91 16.55,42.87 29.56,59.6 12.57,16.38 27.32,28.59 44,36.56 16.74,8 36.16,12.01 58.13,12.01 13.94,0 26.53,-0.73 37.57,-2.1 10.93,-1.36 21.41,-3.57 31.21,-6.47 8.81,-2.57 16.88,-6.03 24.06,-10.37 4.3,-2.54 8.3,-5.41 12.04,-8.63l0 -95.38 -135.5 0 0 -113.48 262.43 0 0 247.71 -4.51 6.43zm368.21 87.49l-102.3 0 0 -635.69 127.32 0 0 635.69 -25.02 0zm711.22 -522.24l-163.19 0 0 522.24 -126.79 0 0 -522.24 -187.8 0 0 -113.45 502.8 0 0 113.45 -25.02 0zm538.26 369.04l-210.59 0 -55.08 153.21 -133.4 0 242.78 -635.69 101.94 0 243.18 635.69 -132.97 0 -55.86 -153.21zm-169.09 -113.49l127.89 0 -64.08 -175.75 -63.81 175.75zm680.43 153.25l277.43 0 0 113.45 -405.19 0 0 -635.69 127.77 0 0 522.24z"/>
  <path class="fil3" d="M772.42 1871.85l594.68 594.68c53.51,53.51 53.52,141.06 0,194.56l-192.65 192.66c-65.91,65.9 -173.73,65.9 -239.64,-0.01l-850.3 -850.29c-112.68,-112.69 -112.68,-297.07 0,-409.75l4.02 -4.01 200.87 -200.87 769.25 -769.26c225.36,-225.36 594.14,-225.36 819.52,0.01l-0.58 0.58c171.16,184.14 199.9,454.86 86.19,668.06 -209.68,-175 -514.59,-198.07 -730.26,-24.01l-440.11 440.11c-45.23,45.24 -52.2,114.78 -20.98,167.53zm974.68 618.21l-594.68 -594.68c-53.51,-53.51 -53.52,-141.06 -0.01,-194.56l192.66 -192.66c65.9,-65.9 173.73,-65.9 239.64,0.01l850.29 850.29c112.69,112.69 112.69,297.07 0,409.75l-4.01 4.01 -200.87 200.87 -769.25 769.26c-225.37,225.36 -594.14,225.36 -819.52,-0.01l0.57 -0.58c-171.15,-184.14 -199.89,-454.86 -86.19,-668.06 209.69,175 514.6,198.07 730.26,24.01l440.11 -440.11c45.24,-45.24 52.21,-114.78 20.99,-167.53z"/>
 </g>
</svg>
